<svg version="1.1" id="Layer_1" xmlns="http://www.w3.org/2000/svg" xmlns:xlink="http://www.w3.org/1999/xlink" x="0px" y="0px"
	 width="100%" viewBox="0 0 360 360" enable-background="new 0 0 360 360" xml:space="preserve">
<path fill="#FFFFFF" opacity="1.000000" stroke="none" 
	d="
M215.000000,361.000000 
	C143.358047,361.000000 72.216087,361.000000 1.037063,361.000000 
	C1.037063,241.066376 1.037063,121.132751 1.037063,1.099559 
	C120.891891,1.099559 240.783905,1.099559 360.837952,1.099559 
	C360.837952,120.999825 360.837952,240.999893 360.837952,361.000000 
	C312.466187,361.000000 263.983093,361.000000 215.000000,361.000000 
M226.746841,191.492325 
	C226.641266,191.333328 226.535706,191.174332 226.569077,190.275360 
	C226.043915,187.848801 225.518768,185.422226 225.052124,182.158493 
	C224.976212,180.759598 224.900284,179.360703 225.720306,177.973099 
	C236.143570,176.647430 246.566818,175.321762 257.514069,174.566330 
	C260.181885,175.268127 262.855194,175.949936 265.516449,176.675781 
	C271.514282,178.311661 276.751678,176.061859 277.484619,167.962265 
	C277.484619,167.962265 277.973145,167.943359 278.397827,168.529663 
	C279.125000,168.921631 279.815155,169.543884 280.585449,169.667801 
	C285.217834,170.413010 289.383881,168.226944 288.539185,165.376404 
	C287.094666,160.501556 289.870026,160.587662 293.213409,160.539093 
	C295.733673,160.502487 298.246887,159.981903 301.904938,159.538284 
	C299.832367,156.773483 298.418030,154.886749 297.003021,152.161972 
	C296.666840,150.098938 296.330658,148.035904 295.993530,145.274872 
	C296.327209,144.182144 296.660889,143.089401 297.643097,141.914291 
	C298.087189,141.261368 298.531250,140.608444 298.971069,139.302292 
	C298.975616,138.866821 298.980164,138.431351 299.746643,137.915176 
	C300.811951,137.018814 302.786713,136.134644 302.798920,135.224182 
	C302.897400,127.877228 302.953064,120.497475 302.329102,113.186859 
	C302.023956,109.611588 300.244629,106.162125 299.132507,102.655724 
	C299.470306,102.373856 299.808075,102.091980 300.145874,101.810104 
	C301.580902,102.642189 303.015900,103.474274 304.461151,104.312286 
	C304.461151,99.695488 304.461151,95.119690 304.461151,89.102791 
	C301.506836,92.999290 302.682098,99.853882 295.985229,96.176849 
	C295.646973,93.454376 295.308685,90.731911 295.538055,87.536774 
	C297.603851,81.736916 301.440765,76.307358 299.286865,69.619972 
	C299.246490,69.494690 299.464752,69.291451 299.430908,69.157898 
	C299.106567,67.877457 298.753845,66.604210 298.409271,65.328896 
	C297.337799,66.084854 295.658386,66.629669 295.308807,67.636314 
	C294.257416,70.663910 293.724243,73.871468 292.981873,76.186729 
	C292.425323,67.886520 288.705261,61.545197 281.363007,57.458824 
	C280.708069,57.094315 279.939056,56.458256 279.330261,56.564255 
	C275.203644,57.282772 271.105865,58.166954 266.870819,58.284653 
	C265.048950,57.345188 263.227081,56.405727 261.153625,55.336521 
	C263.277649,53.283360 266.471741,50.679302 261.638245,49.328106 
	C257.905579,48.284645 253.647751,49.119934 248.618759,49.119934 
	C251.146774,51.073616 252.664581,52.246586 254.871033,53.951759 
	C248.915756,56.557159 238.789337,51.009678 240.467621,63.612335 
	C234.319824,64.416672 228.172012,65.221016 221.298950,65.698753 
	C218.199509,65.799774 215.100067,65.900803 211.493500,65.442551 
	C206.888382,63.871632 204.083801,66.663155 201.195938,69.530426 
	C200.132431,70.586357 198.639908,71.823219 197.304108,71.870209 
	C194.054352,71.984520 193.082397,73.373116 192.831390,76.451912 
	C192.723969,77.769562 191.092880,79.581505 189.763306,80.043030 
	C187.495041,80.830414 184.919769,80.938087 182.471100,80.953239 
	C178.751602,80.976250 176.888748,82.561180 176.994308,86.342957 
	C177.040604,88.001259 177.037216,89.662987 176.992386,91.321426 
	C176.827148,97.431999 174.973618,98.854721 169.014145,97.906349 
	C167.063629,97.595963 165.008102,97.945404 162.299759,97.920372 
	C161.532303,96.113480 159.683411,93.872749 160.201385,92.581505 
	C161.719681,88.796661 160.104523,88.105164 156.904190,87.250809 
	C153.631409,83.749565 151.324966,84.001266 149.357971,87.682121 
	C147.239655,86.788994 145.121353,85.895859 143.508102,84.968544 
	C143.776031,84.810959 144.043961,84.653374 144.311890,84.495789 
	C143.876328,84.328819 143.440781,84.161850 142.579697,83.491241 
	C138.189758,83.215309 133.803329,82.805290 129.409180,82.690315 
	C119.053986,82.419350 108.695465,82.231339 98.337334,82.169838 
	C96.933640,82.161507 95.407547,82.869133 94.140083,83.596947 
	C90.529373,85.670357 87.186325,89.004906 82.895546,84.632683 
	C82.408470,84.136360 80.742409,84.917320 79.627304,84.894798 
	C76.095070,84.823425 72.565659,84.603157 69.033440,84.545341 
	C67.785851,84.524910 66.533325,84.806717 64.402092,85.051872 
	C65.958481,87.027290 66.798401,88.093353 67.938293,89.540131 
	C60.742207,89.832947 58.525848,96.415833 58.140755,100.099731 
	C57.656830,104.729103 56.171677,109.624840 57.525764,115.036339 
	C59.199146,121.723846 57.422539,129.239182 57.432983,136.396378 
	C57.436939,139.107544 58.266285,141.817490 58.719410,144.528000 
	C60.665234,144.023254 62.610409,143.515961 64.558113,143.018616 
	C64.714920,142.978577 64.889122,143.006699 65.267303,143.455521 
	C65.267303,143.455521 65.338646,143.950211 65.031212,144.742996 
	C66.070404,150.481049 67.109589,156.219086 67.352142,162.069382 
	C64.052658,165.055069 64.041641,171.021164 67.077522,174.666550 
	C68.235054,176.056473 69.622627,177.952988 69.541870,179.549652 
	C69.260696,185.108704 71.796555,188.338013 77.343742,189.088608 
	C78.881653,189.296692 80.196182,190.829300 81.750305,191.320114 
	C84.109772,192.065247 86.583717,192.717728 89.021065,192.763092 
	C89.657104,192.774948 90.337677,190.394547 91.746674,189.200195 
	C100.777512,193.258667 110.157051,194.828735 120.200180,193.437347 
	C120.472717,193.333160 120.745255,193.228958 121.652573,192.947662 
	C122.090454,192.938309 122.528343,192.928955 123.503899,193.501892 
	C129.598251,193.671600 135.657227,193.663223 141.888733,189.977661 
	C145.980804,189.476913 150.072861,188.976166 154.097366,189.383469 
	C154.750046,193.930496 155.402725,198.477524 155.214661,203.037857 
	C151.676697,203.141830 148.119064,203.050354 144.606155,203.403519 
	C140.927414,203.773376 136.909439,203.969376 135.319366,208.992371 
	C134.877335,208.987335 134.435287,208.982300 133.469406,208.413452 
	C128.308899,209.170914 123.023872,209.483566 118.041672,210.878098 
	C115.639236,211.550568 111.992966,212.865311 113.000168,217.002151 
	C113.000168,217.002151 113.084793,217.066788 112.266136,217.009171 
	C110.695053,217.357697 108.300392,217.183212 107.691200,218.142548 
	C104.553177,223.084167 100.312233,228.057800 99.408112,233.509781 
	C98.129669,241.218964 98.867538,249.421448 99.771332,257.295105 
	C101.019699,268.170654 103.282799,278.927185 105.004311,289.751740 
	C106.636200,300.012695 111.248787,304.509979 123.516113,303.019226 
	C132.321335,301.949158 141.037842,300.158905 149.838058,299.035706 
	C163.940903,297.235748 177.165070,294.435089 185.902405,281.208069 
	C189.745605,275.390045 191.806808,269.315063 192.857635,262.792053 
	C193.529572,258.620972 192.971436,254.251755 193.725616,249.695572 
	C198.801422,248.797974 203.877213,247.900375 209.273529,247.700256 
	C211.282822,258.222473 216.774323,266.595490 225.020706,273.958893 
	C227.258118,275.951508 229.218231,278.551971 231.822632,279.740173 
	C233.825653,280.654022 236.639496,279.790649 239.742798,279.730682 
	C240.156799,279.854156 240.570801,279.977631 241.158340,280.821350 
	C243.125977,280.816864 245.093597,280.812347 247.765411,280.626160 
	C248.486237,280.679230 249.207062,280.732330 250.458191,281.444427 
	C257.080505,282.668182 263.396851,282.243011 269.562500,277.729614 
	C270.169525,277.657166 270.776550,277.584747 272.040955,277.995789 
	C272.390015,278.342743 272.741211,278.994293 273.087860,278.991913 
	C280.882355,278.938110 289.052856,279.807312 295.902710,275.522369 
	C298.690186,273.778656 304.116425,271.438171 300.851898,266.011322 
	C300.851898,266.011322 300.735718,265.801758 301.526459,265.811035 
	C302.172424,264.089508 302.756683,262.341736 303.475342,260.651123 
	C306.167175,254.318939 305.012054,250.612671 298.945465,246.336304 
	C298.953949,245.892578 298.962433,245.448853 299.705688,244.870056 
	C301.296143,241.917496 303.636627,239.051224 299.795135,235.920975 
	C299.103149,235.357101 299.334930,233.749802 298.965454,232.684860 
	C296.954651,226.889206 298.891937,219.977295 293.579010,214.606567 
	C293.453735,214.070160 293.328430,213.533752 293.483093,212.772202 
	C293.330261,212.514954 293.177429,212.257706 292.764862,211.569916 
	C292.746857,211.403259 292.728882,211.236618 293.383942,210.977173 
	C293.813599,210.579086 294.468903,210.258728 294.637085,209.770569 
	C295.919495,206.048248 294.074493,203.723587 291.284851,201.892609 
	C291.189240,201.927597 291.093628,201.962570 290.305328,201.891998 
	C289.441467,200.769135 288.783478,199.297562 287.651306,198.629257 
	C286.674133,198.052444 285.157532,198.389511 283.292145,198.163651 
	C282.876038,197.740906 282.459900,197.318146 282.025574,196.193695 
	C280.773590,193.692307 279.330109,191.554443 275.364319,192.953888 
	C274.754181,192.802292 274.144073,192.650696 273.327393,192.131012 
	C273.075134,191.998703 272.851776,191.828476 273.002838,191.012222 
	C273.852295,190.400116 274.701782,189.787994 275.551239,189.175888 
	C271.635498,190.534271 269.437317,185.726501 264.855835,187.125870 
	C258.478027,189.073959 251.328476,188.414078 244.545898,189.190704 
	C243.275879,189.336121 242.178131,190.985992 240.365768,192.208359 
	C239.241318,192.391937 238.116867,192.575500 236.584869,192.180939 
	C233.382248,192.126160 230.179626,192.071381 226.746841,191.492325 
M193.703629,66.981018 
	C195.035858,67.163658 196.368088,67.346306 197.700317,67.528946 
	C197.670166,66.711647 197.640015,65.894348 197.609863,65.077049 
	C196.203171,65.492622 194.796494,65.908203 193.703629,66.981018 
M284.735687,195.180023 
	C284.623291,195.023529 284.510925,194.867020 284.398529,194.710526 
	C284.420746,194.928528 284.442963,195.146545 284.735687,195.180023 
z"/>
<path fill="#83C247" opacity="1.000000" stroke="none" 
	d="
M133.993256,208.977264 
	C134.435287,208.982300 134.877335,208.987335 136.067581,208.979980 
	C143.247589,207.952835 149.679382,206.938080 156.507935,205.942200 
	C159.304993,205.243698 161.705276,204.526321 164.523682,203.922638 
	C169.347702,203.396042 173.767044,202.835068 178.155075,202.089691 
	C181.497925,201.521881 183.437485,202.366058 183.903091,206.102539 
	C184.781937,213.155197 185.852066,220.188538 187.036942,227.197052 
	C187.882645,232.199570 189.045670,237.148422 190.043716,242.528870 
	C190.314468,245.257523 190.608597,247.578506 190.864136,250.366699 
	C190.857376,251.498322 190.899948,252.162430 190.919479,252.827225 
	C191.589386,275.616943 179.055267,291.200348 156.627258,295.161530 
	C146.009598,297.036774 135.317047,298.483887 124.677223,300.238892 
	C114.388565,301.936005 108.435143,297.466766 107.017876,287.233948 
	C105.585121,276.889313 103.806335,266.592621 102.180061,256.274750 
	C100.747307,247.184708 99.492920,238.011505 104.301147,229.532761 
	C106.796646,225.132233 110.129959,221.206833 113.084793,217.066788 
	C113.084793,217.066788 113.000168,217.002151 113.383766,216.993561 
	C120.509331,214.315750 127.251289,211.646500 133.993256,208.977264 
z"/>
<path fill="#FCFDFC" opacity="1.000000" stroke="none" 
	d="
M163.000610,97.993095 
	C165.008102,97.945404 167.063629,97.595963 169.014145,97.906349 
	C174.973618,98.854721 176.827148,97.431999 176.992386,91.321426 
	C177.037216,89.662987 177.040604,88.001259 176.994308,86.342957 
	C176.888748,82.561180 178.751602,80.976250 182.471100,80.953239 
	C184.919769,80.938087 187.495041,80.830414 189.763306,80.043030 
	C191.092880,79.581505 192.723969,77.769562 192.831390,76.451912 
	C193.082397,73.373116 194.054352,71.984520 197.304108,71.870209 
	C198.639908,71.823219 200.132431,70.586357 201.195938,69.530426 
	C204.083801,66.663155 206.888382,63.871632 211.607819,66.013214 
	C211.155869,68.061378 210.589600,69.538879 209.865677,71.317429 
	C205.884293,75.143150 201.958008,78.564079 198.261444,82.217438 
	C193.034973,87.382782 187.691879,92.579292 188.667709,101.148300 
	C184.033630,102.129059 182.820740,105.408012 183.205963,108.998001 
	C183.361908,110.451454 185.681747,111.672729 187.014786,113.443932 
	C187.259155,119.141022 187.137146,124.443520 187.837021,129.635223 
	C188.934784,137.778580 190.587296,145.847183 191.601654,154.014404 
	C187.470078,154.678757 183.741684,155.276138 179.998749,155.501678 
	C178.756546,151.899139 177.095749,148.756195 176.418732,145.413986 
	C175.689575,141.814438 174.663010,137.520599 175.946487,134.437271 
	C178.099625,129.264755 175.783020,129.039337 171.874496,128.703156 
	C171.665527,127.979691 171.617355,127.544945 171.908051,126.943649 
	C176.073044,123.685783 171.424805,120.820198 172.008118,117.823738 
	C172.985321,112.803894 170.106522,109.158806 167.638977,105.350143 
	C166.062790,102.917282 164.544739,100.446739 163.000610,97.993095 
z"/>
<path fill="#EFF9F9" opacity="1.000000" stroke="none" 
	d="
M162.650177,97.956734 
	C164.544739,100.446739 166.062790,102.917282 167.638977,105.350143 
	C170.106522,109.158806 172.985321,112.803894 172.008118,117.823738 
	C171.424805,120.820198 176.073044,123.685783 171.727066,126.610344 
	C168.409286,105.205582 153.274017,88.492241 134.179138,85.593407 
	C134.161240,85.612274 134.143799,85.610260 133.769348,85.369507 
	C128.927490,84.918892 124.364853,84.020203 120.009766,84.622444 
	C104.053078,86.829018 88.135078,89.365227 72.278580,92.202477 
	C69.272942,92.740288 66.614388,95.217857 63.486710,96.977386 
	C62.151363,101.193039 59.988583,105.330139 60.328106,109.250526 
	C61.106625,118.239799 63.105850,127.123360 64.515327,136.414719 
	C64.334274,137.520737 64.247368,138.261871 64.132553,139.268005 
	C64.393936,139.713318 64.683228,139.893646 65.042580,140.429230 
	C65.272720,141.234894 65.432800,141.685303 65.461739,142.354584 
	C65.238808,142.716705 65.147026,142.859924 65.055244,143.003143 
	C64.889122,143.006699 64.714920,142.978577 64.558113,143.018616 
	C62.610409,143.515961 60.665234,144.023254 58.719410,144.528000 
	C58.266285,141.817490 57.436939,139.107544 57.432983,136.396378 
	C57.422539,129.239182 59.199146,121.723846 57.525764,115.036339 
	C56.171677,109.624840 57.656830,104.729103 58.140755,100.099731 
	C58.525848,96.415833 60.742207,89.832947 67.938293,89.540131 
	C66.798401,88.093353 65.958481,87.027290 64.402092,85.051872 
	C66.533325,84.806717 67.785851,84.524910 69.033440,84.545341 
	C72.565659,84.603157 76.095070,84.823425 79.627304,84.894798 
	C80.742409,84.917320 82.408470,84.136360 82.895546,84.632683 
	C87.186325,89.004906 90.529373,85.670357 94.140083,83.596947 
	C95.407547,82.869133 96.933640,82.161507 98.337334,82.169838 
	C108.695465,82.231339 119.053986,82.419350 129.409180,82.690315 
	C133.803329,82.805290 138.189758,83.215309 142.789627,83.745926 
	C142.999557,84.000603 142.995087,84.006599 142.827972,84.093597 
	C142.773026,84.452538 142.885193,84.724464 142.998672,84.998146 
	C143.000000,84.999893 143.003036,85.002731 143.003036,85.002731 
	C145.121353,85.895859 147.239655,86.788994 149.842514,88.157745 
	C152.663651,89.607803 155.368423,94.519211 157.005051,88.008850 
	C160.104523,88.105164 161.719681,88.796661 160.201385,92.581505 
	C159.683411,93.872749 161.532303,96.113480 162.650177,97.956734 
z"/>
<path fill="#EBFAD9" opacity="1.000000" stroke="none" 
	d="
M112.675461,217.037979 
	C110.129959,221.206833 106.796646,225.132233 104.301147,229.532761 
	C99.492920,238.011505 100.747307,247.184708 102.180061,256.274750 
	C103.806335,266.592621 105.585121,276.889313 107.017876,287.233948 
	C108.435143,297.466766 114.388565,301.936005 124.677223,300.238892 
	C135.317047,298.483887 146.009598,297.036774 156.627258,295.161530 
	C179.055267,291.200348 191.589386,275.616943 190.919479,252.827225 
	C190.899948,252.162430 190.857376,251.498322 191.208435,250.331299 
	C192.049133,249.876266 192.506943,249.923828 192.964767,249.971375 
	C192.971436,254.251755 193.529572,258.620972 192.857635,262.792053 
	C191.806808,269.315063 189.745605,275.390045 185.902405,281.208069 
	C177.165070,294.435089 163.940903,297.235748 149.838058,299.035706 
	C141.037842,300.158905 132.321335,301.949158 123.516113,303.019226 
	C111.248787,304.509979 106.636200,300.012695 105.004311,289.751740 
	C103.282799,278.927185 101.019699,268.170654 99.771332,257.295105 
	C98.867538,249.421448 98.129669,241.218964 99.408112,233.509781 
	C100.312233,228.057800 104.553177,223.084167 107.691200,218.142548 
	C108.300392,217.183212 110.695053,217.357697 112.675461,217.037979 
z"/>
<path fill="#D8F9FC" opacity="1.000000" stroke="none" 
	d="
M189.003235,101.004280 
	C187.691879,92.579292 193.034973,87.382782 198.261444,82.217438 
	C201.958008,78.564079 205.884293,75.143150 210.222839,71.276138 
	C214.499832,69.297661 218.262024,67.661507 222.024216,66.025352 
	C228.172012,65.221016 234.319824,64.416672 241.162048,63.318375 
	C250.237259,61.682140 258.618011,60.339863 266.998779,58.997589 
	C271.105865,58.166954 275.203644,57.282772 279.330261,56.564255 
	C279.939056,56.458256 280.708069,57.094315 281.363007,57.458824 
	C288.705261,61.545197 292.425323,67.886520 292.983643,77.014793 
	C293.647064,81.231720 294.308746,84.620583 294.970398,88.009445 
	C295.308685,90.731911 295.646973,93.454376 295.984558,97.021286 
	C298.070801,111.161186 301.208435,124.378082 298.984741,137.995880 
	C298.980164,138.431351 298.975616,138.866821 298.654053,139.680511 
	C297.889526,140.704712 297.442047,141.350693 296.994568,141.996674 
	C296.660889,143.089401 296.327209,144.182144 295.685822,145.785873 
	C294.577667,148.185043 293.777222,150.073212 292.643311,151.997101 
	C291.260773,152.404434 290.211670,152.776047 289.086121,153.080215 
	C289.009644,153.012787 288.859619,152.879791 288.941284,152.541412 
	C295.125488,143.270309 298.806580,133.312134 297.575684,122.602242 
	C295.623047,105.612724 292.667542,88.731758 289.868713,71.849220 
	C288.585419,64.108345 281.269623,59.003403 273.782227,60.166904 
	C259.009796,62.462475 244.256927,64.884033 229.485794,67.188240 
	C215.616501,69.351761 204.505127,75.801430 196.642487,88.030258 
	C195.547043,89.794365 194.732666,91.374161 193.684418,93.175995 
	C193.207458,94.219307 192.964401,95.040588 192.506622,96.064636 
	C192.149963,96.832901 192.008011,97.398399 191.790665,98.108208 
	C191.715286,98.252518 191.711685,98.578125 191.478851,98.850723 
	C190.594177,101.105782 189.942352,103.088249 188.997330,105.043083 
	C188.803833,103.678391 188.903549,102.341339 189.003235,101.004280 
z"/>
<path fill="#205D5A" opacity="1.000000" stroke="none" 
	d="
M236.992416,192.759064 
	C238.116867,192.575500 239.241318,192.391937 241.104324,192.127991 
	C246.895309,191.388779 251.947754,190.729935 257.002045,190.297821 
	C257.003906,190.524567 257.005249,190.978027 256.756317,191.269028 
	C251.005859,192.544312 245.476624,193.396942 240.009903,194.546722 
	C233.399399,195.937119 227.242218,199.048050 220.043442,198.202454 
	C216.277405,197.760086 212.242111,199.280792 208.387497,200.170822 
	C207.508774,200.373718 206.213120,201.652374 206.233765,202.405075 
	C206.376389,207.606720 206.777100,212.803314 207.181793,217.994736 
	C207.335037,219.960663 207.660065,221.919006 208.006424,223.863068 
	C209.581573,232.704071 209.123291,241.891830 213.490021,250.256210 
	C216.610916,256.234222 217.124725,263.610199 223.798416,267.623962 
	C224.816071,268.235992 224.584137,270.925751 224.976501,272.800842 
	C225.022842,272.947144 225.044815,273.253326 225.044815,273.253326 
	C216.774323,266.595490 211.282822,258.222473 209.149841,246.943451 
	C208.585052,244.048767 208.143936,241.910904 207.782669,239.377319 
	C205.842194,225.482712 203.821854,211.983826 201.790268,198.409882 
	C208.049118,197.460342 213.450729,196.640869 219.244049,195.829254 
	C222.091583,195.275299 224.547409,194.713516 227.429520,194.176437 
	C230.901352,193.720444 233.946884,193.239761 236.992416,192.759064 
z"/>
<path fill="#FBFCF7" opacity="1.000000" stroke="none" 
	d="
M90.997803,189.112869 
	C90.337677,190.394547 89.657104,192.774948 89.021065,192.763092 
	C86.583717,192.717728 84.109772,192.065247 81.750305,191.320114 
	C80.196182,190.829300 78.881653,189.296692 77.343742,189.088608 
	C71.796555,188.338013 69.260696,185.108704 69.541870,179.549652 
	C69.622627,177.952988 68.235054,176.056473 67.077522,174.666550 
	C64.041641,171.021164 64.052658,165.055069 68.063675,162.168427 
	C69.575516,164.156906 70.375816,166.046326 70.825935,167.994232 
	C70.263580,169.085007 70.051407,170.117264 69.839233,171.149536 
	C70.573967,170.731354 71.308701,170.313171 72.353821,170.044617 
	C73.476059,171.782272 74.287933,173.370331 74.795349,175.104126 
	C74.328064,176.639908 74.165245,178.029938 74.002426,179.419952 
	C74.535896,179.440781 75.069359,179.461624 75.602821,179.482468 
	C75.747177,178.286667 75.891533,177.090866 76.338058,176.009399 
	C77.500214,177.081161 78.360191,178.038605 79.289703,179.317322 
	C82.941254,182.347885 86.523277,185.057175 90.177315,188.034149 
	C90.498817,188.572174 90.748314,188.842514 90.997803,189.112869 
z"/>
<path fill="#2B6184" opacity="1.000000" stroke="none" 
	d="
M91.372238,189.156525 
	C90.748314,188.842514 90.498817,188.572174 90.282394,187.843109 
	C90.520798,187.164886 90.769432,187.019287 91.385223,186.960876 
	C92.141785,186.975967 92.574486,186.977798 93.354691,186.992325 
	C94.794998,187.327728 95.887802,187.650452 97.371048,187.986252 
	C103.866943,190.791046 110.265213,192.172623 117.385399,191.997101 
	C120.859108,191.006683 123.935349,190.010941 127.426590,189.013474 
	C129.224884,189.003571 130.608200,188.995392 132.379639,188.995911 
	C134.180420,188.673965 135.593063,188.343338 137.447693,188.012939 
	C140.022629,187.811874 142.183548,187.764343 144.283813,187.382919 
	C153.855240,185.644684 163.379807,183.625595 172.983124,182.096024 
	C177.534851,181.371048 178.055634,180.634430 177.275162,176.095657 
	C176.600433,172.171860 176.953568,168.071320 176.902618,164.218155 
	C176.967697,164.639465 177.077850,164.838821 177.377213,165.414597 
	C178.363022,171.771057 179.254974,177.698395 180.106506,183.357147 
	C173.321274,184.668854 167.506363,185.792984 161.319336,186.915207 
	C158.686432,187.434021 156.425690,187.954712 154.164932,188.475403 
	C150.072861,188.976166 145.980804,189.476913 141.021332,189.939728 
	C134.424698,190.907730 128.695465,191.913666 122.966225,192.919601 
	C122.528343,192.928955 122.090454,192.938309 121.076538,192.987701 
	C120.330582,193.071136 120.160652,193.114563 119.990715,193.157990 
	C110.157051,194.828735 100.777512,193.258667 91.372238,189.156525 
z"/>
<path fill="#245F5B" opacity="1.000000" stroke="none" 
	d="
M298.970947,245.005127 
	C298.962433,245.448853 298.953949,245.892578 298.998077,247.063904 
	C299.612366,253.794907 300.174042,259.798340 300.735718,265.801758 
	C300.735718,265.801758 300.851898,266.011322 300.542389,266.101440 
	C297.636688,268.645630 295.040497,271.099701 292.318939,273.399109 
	C292.193573,273.244415 291.941284,272.936371 292.022705,272.612335 
	C293.930359,270.166290 295.833344,268.103607 297.543396,265.891815 
	C298.190582,265.054779 298.834106,263.823547 298.724792,262.857361 
	C298.077911,257.138428 297.316650,251.427094 296.391846,245.746094 
	C294.672424,235.183868 292.691589,224.663193 291.058075,214.088379 
	C290.024078,207.394333 280.229614,198.378815 273.289093,198.432358 
	C273.164551,196.665573 273.038483,194.876968 273.069122,192.942444 
	C273.225830,192.796524 273.533936,192.499100 273.533936,192.499100 
	C274.144073,192.650696 274.754181,192.802292 275.866730,193.254211 
	C278.260681,194.668167 280.152252,195.781784 282.043793,196.895401 
	C282.459900,197.318146 282.876038,197.740906 283.713440,198.543365 
	C286.993500,202.972046 289.852234,207.021011 292.710938,211.069992 
	C292.728882,211.236618 292.746857,211.403259 292.862305,212.048203 
	C293.040894,212.683456 293.122009,212.840408 293.203125,212.997360 
	C293.328430,213.533752 293.453735,214.070160 293.748535,215.224335 
	C295.602386,225.563110 297.286652,235.284119 298.970947,245.005127 
z"/>
<path fill="#FAFDFA" opacity="1.000000" stroke="none" 
	d="
M266.934814,58.641121 
	C258.618011,60.339863 250.237259,61.682140 241.441696,63.035530 
	C238.789337,51.009678 248.915756,56.557159 254.871033,53.951759 
	C252.664581,52.246586 251.146774,51.073616 248.618759,49.119934 
	C253.647751,49.119934 257.905579,48.284645 261.638245,49.328106 
	C266.471741,50.679302 263.277649,53.283360 261.153625,55.336521 
	C263.227081,56.405727 265.048950,57.345188 266.934814,58.641121 
z"/>
<path fill="#FBFDF9" opacity="1.000000" stroke="none" 
	d="
M299.365662,137.955536 
	C301.208435,124.378082 298.070801,111.161186 295.987610,97.434357 
	C302.682098,99.853882 301.506836,92.999290 304.461151,89.102791 
	C304.461151,95.119690 304.461151,99.695488 304.461151,104.312286 
	C303.015900,103.474274 301.580902,102.642189 300.145874,101.810104 
	C299.808075,102.091980 299.470306,102.373856 299.132507,102.655724 
	C300.244629,106.162125 302.023956,109.611588 302.329102,113.186859 
	C302.953064,120.497475 302.897400,127.877228 302.798920,135.224182 
	C302.786713,136.134644 300.811951,137.018814 299.365662,137.955536 
z"/>
<path fill="#245F5B" opacity="1.000000" stroke="none" 
	d="
M271.383575,277.512299 
	C270.776550,277.584747 270.169525,277.657166 268.861877,277.800537 
	C262.083466,278.842743 256.005676,279.814087 249.927887,280.785400 
	C249.207062,280.732330 248.486237,280.679230 247.079071,280.536255 
	C244.590088,280.331268 242.787445,280.216187 240.984802,280.101105 
	C240.570801,279.977631 240.156799,279.854156 239.153107,279.486877 
	C234.318466,277.194305 230.073517,275.145538 226.233856,273.067200 
	C231.884689,274.643311 237.119827,276.284729 242.385605,277.821198 
	C243.309158,278.090698 244.390503,278.090393 245.349167,277.925323 
	C252.298462,276.729095 259.292114,277.539856 266.406281,275.423218 
	C274.452362,273.029388 283.390869,273.635040 291.941284,272.936371 
	C291.941284,272.936371 292.193573,273.244415 291.973328,273.580200 
	C284.963226,275.114777 278.173401,276.313538 271.383575,277.512299 
z"/>
<path fill="#FBFDF9" opacity="1.000000" stroke="none" 
	d="
M289.162598,153.147644 
	C290.211670,152.776047 291.260773,152.404434 292.781433,152.283371 
	C294.503265,152.689270 295.753448,152.844635 297.003662,153.000000 
	C298.418030,154.886749 299.832367,156.773483 301.904938,159.538284 
	C298.246887,159.981903 295.733673,160.502487 293.213409,160.539093 
	C289.870026,160.587662 287.094666,160.501556 288.539185,165.376404 
	C289.383881,168.226944 285.217834,170.413010 280.585449,169.667801 
	C279.815155,169.543884 279.125000,168.921631 278.187195,168.002045 
	C277.976593,167.474411 277.990662,167.004288 278.213684,166.892242 
	C278.716064,166.574448 278.902069,166.304367 279.186890,165.696579 
	C282.731293,161.403931 288.603912,159.393387 289.162598,153.147644 
z"/>
<path fill="#919C9E" opacity="1.000000" stroke="none" 
	d="
M207.702805,239.773041 
	C208.143936,241.910904 208.585052,244.048767 208.989594,246.594696 
	C203.877213,247.900375 198.801422,248.797974 193.345184,249.833466 
	C192.506943,249.923828 192.049133,249.876266 191.247009,249.864105 
	C190.608597,247.578506 190.314468,245.257523 190.451721,242.480804 
	C196.489685,241.274414 202.096237,240.523712 207.702805,239.773041 
z"/>
<path fill="#93A09F" opacity="1.000000" stroke="none" 
	d="
M154.131149,188.929443 
	C156.425690,187.954712 158.686432,187.434021 161.426544,187.333466 
	C162.639114,193.105392 163.372330,198.457184 164.105560,203.808960 
	C161.705276,204.526321 159.304993,205.243698 156.522385,205.580383 
	C156.111847,204.474655 156.083633,203.749603 156.055420,203.024551 
	C155.402725,198.477524 154.750046,193.930496 154.131149,188.929443 
z"/>
<path fill="#1A5679" opacity="1.000000" stroke="none" 
	d="
M79.220169,178.996048 
	C78.360191,178.038605 77.500214,177.081161 76.271851,175.777924 
	C75.716476,175.136978 75.448586,174.979065 75.099808,174.958374 
	C74.287933,173.370331 73.476059,171.782272 72.332146,169.750031 
	C71.725433,168.849136 71.450775,168.392441 71.176117,167.935745 
	C70.375816,166.046326 69.575516,164.156906 68.461990,162.112305 
	C67.109589,156.219086 66.070404,150.481049 65.363503,144.220917 
	C65.661484,143.177795 65.627182,142.656754 65.592880,142.135696 
	C65.432800,141.685303 65.272720,141.234894 64.973236,140.207047 
	C64.674255,139.351028 64.449799,139.142166 64.160469,139.003006 
	C64.247368,138.261871 64.334274,137.520737 64.652855,136.412628 
	C64.884529,136.045670 65.153694,135.987946 65.466599,136.160553 
	C66.853867,139.759705 68.569382,143.131653 68.866699,146.624344 
	C69.452507,153.505981 69.680824,160.450790 73.758804,166.302063 
	C76.571976,170.338501 80.032120,173.919144 80.776047,178.957886 
	C80.050011,178.977814 79.635086,178.986923 79.220169,178.996048 
z"/>
<path fill="#D8F9FC" opacity="1.000000" stroke="none" 
	d="
M256.990082,173.996094 
	C246.566818,175.321762 236.143570,176.647430 225.131409,177.706268 
	C224.454361,177.261871 224.366226,177.084290 224.660980,176.678894 
	C240.944153,173.193665 256.844452,169.936264 272.835510,166.789856 
	C272.926239,166.900833 273.110077,167.120834 273.012360,167.456818 
	C267.606445,169.860565 262.298279,171.928329 256.990082,173.996094 
z"/>
<path fill="#F7FBF4" opacity="1.000000" stroke="none" 
	d="
M295.254242,87.773102 
	C294.308746,84.620583 293.647064,81.231720 292.987152,77.425842 
	C293.724243,73.871468 294.257416,70.663910 295.308807,67.636314 
	C295.658386,66.629669 297.337799,66.084854 298.409271,65.328896 
	C298.753845,66.604210 299.106567,67.877457 299.430908,69.157898 
	C299.464752,69.291451 299.246490,69.494690 299.286865,69.619972 
	C301.440765,76.307358 297.603851,81.736916 295.254242,87.773102 
z"/>
<path fill="#FBFDF9" opacity="1.000000" stroke="none" 
	d="
M257.252075,174.281219 
	C262.298279,171.928329 267.606445,169.860565 273.348145,167.420380 
	C274.853027,167.353745 275.924377,167.659546 276.995758,167.965347 
	C276.751678,176.061859 271.514282,178.311661 265.516449,176.675781 
	C262.855194,175.949936 260.181885,175.268127 257.252075,174.281219 
z"/>
<path fill="#E3F5F4" opacity="1.000000" stroke="none" 
	d="
M271.712280,277.754028 
	C278.173401,276.313538 284.963226,275.114777 292.098694,273.734924 
	C295.040497,271.099701 297.636688,268.645630 300.502869,265.988373 
	C304.116425,271.438171 298.690186,273.778656 295.902710,275.522369 
	C289.052856,279.807312 280.882355,278.938110 273.087860,278.991913 
	C272.741211,278.994293 272.390015,278.342743 271.712280,277.754028 
z"/>
<path fill="#E3F5F4" opacity="1.000000" stroke="none" 
	d="
M257.000183,190.071106 
	C251.947754,190.729935 246.895309,191.388779 241.421875,191.994598 
	C242.178131,190.985992 243.275879,189.336121 244.545898,189.190704 
	C251.328476,188.414078 258.478027,189.073959 264.855835,187.125870 
	C269.437317,185.726501 271.635498,190.534271 275.551239,189.175888 
	C274.701782,189.787994 273.852295,190.400116 272.414948,191.287506 
	C266.884766,191.065552 261.942474,190.568329 257.000183,190.071106 
z"/>
<path fill="#EBFAD9" opacity="1.000000" stroke="none" 
	d="
M155.635040,203.031204 
	C156.083633,203.749603 156.111847,204.474655 156.125610,205.561523 
	C149.679382,206.938080 143.247589,207.952835 136.390656,208.904663 
	C136.909439,203.969376 140.927414,203.773376 144.606155,203.403519 
	C148.119064,203.050354 151.676697,203.141830 155.635040,203.031204 
z"/>
<path fill="#989BA1" opacity="1.000000" stroke="none" 
	d="
M224.993607,182.995667 
	C225.518768,185.422226 226.043915,187.848801 226.192078,190.575882 
	C223.573486,191.254440 221.331879,191.632477 218.975357,191.654404 
	C218.367554,189.154312 217.874664,187.010330 217.329956,184.507690 
	C217.166672,183.433136 217.055176,182.717255 217.006073,181.750137 
	C217.112640,181.332092 217.156815,181.165283 217.571014,181.005157 
	C220.291885,181.673126 222.642746,182.334396 224.993607,182.995667 
z"/>
<path fill="#E3F5F4" opacity="1.000000" stroke="none" 
	d="
M299.338318,244.937592 
	C297.286652,235.284119 295.602386,225.563110 293.944611,215.425674 
	C298.891937,219.977295 296.954651,226.889206 298.965454,232.684860 
	C299.334930,233.749802 299.103149,235.357101 299.795135,235.920975 
	C303.636627,239.051224 301.296143,241.917496 299.338318,244.937592 
z"/>
<path fill="#E3F5F4" opacity="1.000000" stroke="none" 
	d="
M301.131104,265.806396 
	C300.174042,259.798340 299.612366,253.794907 299.100677,247.383179 
	C305.012054,250.612671 306.167175,254.318939 303.475342,260.651123 
	C302.756683,262.341736 302.172424,264.089508 301.131104,265.806396 
z"/>
<path fill="#EBFAD9" opacity="1.000000" stroke="none" 
	d="
M133.731323,208.695358 
	C127.251289,211.646500 120.509331,214.315750 113.417099,217.035309 
	C111.992966,212.865311 115.639236,211.550568 118.041672,210.878098 
	C123.023872,209.483566 128.308899,209.170914 133.731323,208.695358 
z"/>
<path fill="#E3F5F4" opacity="1.000000" stroke="none" 
	d="
M293.047424,211.023590 
	C289.852234,207.021011 286.993500,202.972046 284.007080,198.622833 
	C285.157532,198.389511 286.674133,198.052444 287.651306,198.629257 
	C288.783478,199.297562 289.441467,200.769135 290.652649,201.945999 
	C291.000000,202.000000 291.002441,202.001923 291.002441,202.001923 
	C294.074493,203.723587 295.919495,206.048248 294.637085,209.770569 
	C294.468903,210.258728 293.813599,210.579086 293.047424,211.023590 
z"/>
<path fill="#D8F9FC" opacity="1.000000" stroke="none" 
	d="
M277.240173,167.963806 
	C275.924377,167.659546 274.853027,167.353745 273.445862,167.084396 
	C273.110077,167.120834 272.926239,166.900833 273.062012,166.545441 
	C278.418365,161.753296 283.639008,157.316544 288.859619,152.879791 
	C288.859619,152.879791 289.009644,153.012787 289.086121,153.080215 
	C288.603912,159.393387 282.731293,161.403931 278.965027,165.810486 
	C278.271423,166.402130 278.084656,166.670975 277.990662,167.004288 
	C277.990662,167.004288 277.976593,167.474411 277.974854,167.708893 
	C277.973145,167.943359 277.484619,167.962265 277.240173,167.963806 
z"/>
<path fill="#869FB0" opacity="1.000000" stroke="none" 
	d="
M225.022858,182.577087 
	C222.642746,182.334396 220.291885,181.673126 217.482635,180.652466 
	C216.995911,179.568420 216.967560,178.843765 217.184525,177.810547 
	C219.712585,177.303558 221.995346,177.105148 224.278091,176.906723 
	C224.366226,177.084290 224.454361,177.261871 224.683441,177.700623 
	C224.900284,179.360703 224.976212,180.759598 225.022858,182.577087 
z"/>
<path fill="#E3F5F4" opacity="1.000000" stroke="none" 
	d="
M250.193039,281.114929 
	C256.005676,279.814087 262.083466,278.842743 268.583374,277.937317 
	C263.396851,282.243011 257.080505,282.668182 250.193039,281.114929 
z"/>
<path fill="#FEFCF0" opacity="1.000000" stroke="none" 
	d="
M156.954620,87.629829 
	C155.368423,94.519211 152.663651,89.607803 150.161957,88.318977 
	C151.324966,84.001266 153.631409,83.749565 156.954620,87.629829 
z"/>
<path fill="#FBFDF5" opacity="1.000000" stroke="none" 
	d="
M221.661591,65.862053 
	C218.262024,67.661507 214.499832,69.297661 210.380493,70.975098 
	C210.589600,69.538879 211.155869,68.061378 211.861389,66.292862 
	C215.100067,65.900803 218.199509,65.799774 221.661591,65.862053 
z"/>
<path fill="#809A9F" opacity="1.000000" stroke="none" 
	d="
M219.090271,192.010513 
	C221.331879,191.632477 223.573486,191.254440 226.122620,190.945862 
	C226.535706,191.174332 226.641266,191.333328 226.814484,192.109207 
	C226.922485,193.201309 226.962845,193.676514 227.003204,194.151733 
	C224.547409,194.713516 222.091583,195.275299 219.296158,195.450363 
	C219.001114,194.045929 219.045700,193.028214 219.090271,192.010513 
z"/>
<path fill="#E3F5F4" opacity="1.000000" stroke="none" 
	d="
M225.828583,273.096802 
	C230.073517,275.145538 234.318466,277.194305 238.828094,279.480316 
	C236.639496,279.790649 233.825653,280.654022 231.822632,279.740173 
	C229.218231,278.551971 227.258118,275.951508 225.032761,273.606110 
	C225.044815,273.253326 225.022842,272.947144 225.169464,272.975586 
	C225.486908,273.034912 225.657745,273.065857 225.828583,273.096802 
z"/>
<path fill="#D0ECF4" opacity="1.000000" stroke="none" 
	d="
M123.235062,193.210754 
	C128.695465,191.913666 134.424698,190.907730 140.575058,189.965195 
	C135.657227,193.663223 129.598251,193.671600 123.235062,193.210754 
z"/>
<path fill="#245F5B" opacity="1.000000" stroke="none" 
	d="
M257.002045,190.297836 
	C261.942474,190.568329 266.884766,191.065552 272.242188,191.591553 
	C272.851776,191.828476 273.075134,191.998703 273.430664,192.315063 
	C273.533936,192.499100 273.225830,192.796524 272.648651,192.911957 
	C269.708191,192.671539 267.344910,192.315704 264.819031,191.722412 
	C264.116333,191.326691 263.576263,191.168442 262.605316,191.005325 
	C260.451385,190.992981 258.728333,190.985504 257.005249,190.978027 
	C257.005249,190.978027 257.003906,190.524567 257.002045,190.297836 
z"/>
<path fill="#FCFAF1" opacity="1.000000" stroke="none" 
	d="
M297.003357,152.580994 
	C295.753448,152.844635 294.503265,152.689270 293.114929,152.247650 
	C293.777222,150.073212 294.577667,148.185043 295.686279,146.134872 
	C296.330658,148.035904 296.666840,150.098938 297.003357,152.580994 
z"/>
<path fill="#E3F5F4" opacity="1.000000" stroke="none" 
	d="
M227.429504,194.176437 
	C226.962845,193.676514 226.922485,193.201309 226.929565,192.371338 
	C230.179626,192.071381 233.382248,192.126160 236.788635,192.470001 
	C233.946884,193.239761 230.901352,193.720444 227.429504,194.176437 
z"/>
<path fill="#E3F5F4" opacity="1.000000" stroke="none" 
	d="
M282.034668,196.544556 
	C280.152252,195.781784 278.260681,194.668167 276.180115,193.284348 
	C279.330109,191.554443 280.773590,193.692307 282.034668,196.544556 
z"/>
<path fill="#FCFDFC" opacity="1.000000" stroke="none" 
	d="
M193.546722,66.652405 
	C194.796494,65.908203 196.203171,65.492622 197.609863,65.077049 
	C197.640015,65.894348 197.670166,66.711647 197.700317,67.528946 
	C196.368088,67.346306 195.035858,67.163658 193.546722,66.652405 
z"/>
<path fill="#E3F5F4" opacity="1.000000" stroke="none" 
	d="
M241.071564,280.461243 
	C242.787445,280.216187 244.590088,280.331268 246.726990,280.627106 
	C245.093597,280.812347 243.125977,280.816864 241.071564,280.461243 
z"/>
<path fill="#FBFDF9" opacity="1.000000" stroke="none" 
	d="
M297.318848,141.955475 
	C297.442047,141.350693 297.889526,140.704712 298.656189,140.007126 
	C298.531250,140.608444 298.087189,141.261368 297.318848,141.955475 
z"/>
<path fill="#2B6184" opacity="1.000000" stroke="none" 
	d="
M65.461739,142.354584 
	C65.627182,142.656754 65.661484,143.177795 65.517220,143.824524 
	C65.338646,143.950211 65.267303,143.455521 65.161270,143.229340 
	C65.147026,142.859924 65.238808,142.716705 65.461739,142.354584 
z"/>
<path fill="#E3F5F4" opacity="1.000000" stroke="none" 
	d="
M284.600403,195.272278 
	C284.442963,195.146545 284.420746,194.928528 284.398529,194.710526 
	C284.510925,194.867020 284.623291,195.023529 284.600403,195.272278 
z"/>
<path fill="#EFF9F9" opacity="1.000000" stroke="none" 
	d="
M143.002380,83.997742 
	C143.440781,84.161850 143.876328,84.328819 144.311890,84.495789 
	C144.043961,84.653374 143.776031,84.810959 143.255569,84.985641 
	C143.003036,85.002731 143.000000,84.999893 142.999298,84.750717 
	C142.998581,84.501541 142.995087,84.006599 142.995087,84.006599 
	C142.995087,84.006599 142.999557,84.000603 143.002380,83.997742 
z"/>
<path fill="#D0ECF4" opacity="1.000000" stroke="none" 
	d="
M120.095444,193.297668 
	C120.160652,193.114563 120.330582,193.071136 120.759148,193.076233 
	C120.745255,193.228958 120.472717,193.333160 120.095444,193.297668 
z"/>
<path fill="#E3F5F4" opacity="1.000000" stroke="none" 
	d="
M293.343109,212.884781 
	C293.122009,212.840408 293.040894,212.683456 292.992188,212.263474 
	C293.177429,212.257706 293.330261,212.514954 293.343109,212.884781 
z"/>
<path fill="#E3F5F4" opacity="1.000000" stroke="none" 
	d="
M290.999023,201.998779 
	C291.093628,201.962570 291.189240,201.927597 291.143646,201.947266 
	C291.002441,202.001923 291.000000,202.000000 290.999023,201.998779 
z"/>
<path fill="#F6FCF8" opacity="1.000000" stroke="none" 
	d="
M218.975357,191.654404 
	C219.045700,193.028214 219.001114,194.045929 218.904449,195.442505 
	C213.450729,196.640869 208.049118,197.460342 201.790268,198.409882 
	C203.821854,211.983826 205.842194,225.482712 207.782669,239.377304 
	C202.096237,240.523712 196.489685,241.274414 190.475098,242.073166 
	C189.045670,237.148422 187.882645,232.199570 187.036942,227.197052 
	C185.852066,220.188538 184.781937,213.155197 183.903091,206.102539 
	C183.437485,202.366058 181.497925,201.521881 178.155075,202.089691 
	C173.767044,202.835068 169.347702,203.396042 164.523682,203.922638 
	C163.372330,198.457184 162.639114,193.105392 161.798676,187.335358 
	C167.506363,185.792984 173.321274,184.668854 180.106506,183.357147 
	C179.254974,177.698395 178.363022,171.771057 177.737335,165.166138 
	C183.675705,163.489960 189.347794,162.491364 195.306839,161.808228 
	C196.399734,166.938095 197.438278,171.728683 197.935074,176.574829 
	C198.305435,180.187668 199.741272,181.149551 203.329910,179.810867 
	C204.123520,179.676880 204.563248,179.518890 205.373810,179.456177 
	C208.818466,178.977249 211.892303,178.403000 215.293457,177.889343 
	C216.060226,178.006317 216.499725,178.062698 216.939209,178.119095 
	C216.967560,178.843765 216.995911,179.568420 217.112640,180.645782 
	C217.156815,181.165283 217.112640,181.332092 216.545441,181.750061 
	C210.939911,182.341248 205.844650,182.565536 200.786377,183.124557 
	C199.839432,183.229202 199.040558,184.673676 198.173355,185.499863 
	C199.402832,185.953674 200.675980,186.886200 201.854233,186.778656 
	C207.045029,186.304932 212.208435,185.531326 217.381775,184.866348 
	C217.874664,187.010330 218.367554,189.154312 218.975357,191.654404 
M184.690475,184.040497 
	C184.690475,181.763641 184.690475,179.486801 184.690475,177.209946 
	C184.059433,177.256409 183.428406,177.302872 182.797363,177.349335 
	C181.414703,179.748886 181.528976,181.967224 184.690475,184.040497 
z"/>
<path fill="#2B6184" opacity="1.000000" stroke="none" 
	d="
M134.197052,85.574539 
	C153.274017,88.492241 168.409286,105.205582 171.388214,126.776886 
	C171.617355,127.544945 171.665527,127.979691 171.818085,129.126984 
	C172.320923,132.773193 172.585510,135.732681 173.145340,138.635223 
	C174.347641,144.868515 175.702148,151.072433 176.911728,157.677048 
	C176.798187,159.382019 176.767242,160.698318 176.393082,161.954285 
	C175.037918,159.951187 173.480698,158.108170 173.104065,156.049179 
	C170.944397,144.242798 169.750458,132.218491 166.922241,120.585815 
	C163.123657,104.961884 153.401917,94.110313 137.633789,89.247337 
	C136.317719,88.841446 135.209518,87.761452 134.027405,86.636185 
	C134.099045,86.043320 134.148041,85.808929 134.197052,85.574539 
z"/>
<path fill="#939DA8" opacity="1.000000" stroke="none" 
	d="
M176.736298,162.014618 
	C176.767242,160.698318 176.798187,159.382019 177.061172,157.355164 
	C178.199921,156.387573 179.106613,156.130539 180.013306,155.873505 
	C183.741684,155.276138 187.470078,154.678757 191.928955,154.063171 
	C193.099548,154.018631 193.539612,153.992325 194.014511,154.271317 
	C194.384415,155.051468 194.719498,155.526321 195.042587,156.373962 
	C195.066757,157.491516 195.102905,158.236267 195.094345,159.294357 
	C195.039719,160.236053 195.029800,160.864410 195.019897,161.492783 
	C189.347794,162.491364 183.675705,163.489960 177.643478,164.737000 
	C177.077850,164.838821 176.967697,164.639465 176.953613,163.877823 
	C176.881653,162.917038 176.808990,162.465820 176.736298,162.014618 
z"/>
<path fill="#D8F9FC" opacity="1.000000" stroke="none" 
	d="
M193.979691,153.966034 
	C193.539612,153.992325 193.099548,154.018631 192.332169,153.996185 
	C190.587296,145.847183 188.934784,137.778580 187.837021,129.635223 
	C187.137146,124.443520 187.259155,119.141022 187.261475,113.266060 
	C187.952988,111.754074 188.395691,110.864220 188.900162,110.408646 
	C189.181503,113.398849 189.401062,115.954781 189.612335,118.817032 
	C189.698654,119.741638 189.793243,120.359917 189.860199,121.414902 
	C190.856384,127.957825 191.880234,134.064056 192.888657,140.595551 
	C193.325500,145.009537 193.777786,148.998260 194.157867,153.229309 
	C194.050354,153.636398 194.015015,153.801208 193.979691,153.966034 
z"/>
<path fill="#EFF9F9" opacity="1.000000" stroke="none" 
	d="
M179.998749,155.501663 
	C179.106613,156.130539 178.199921,156.387573 177.143784,156.966492 
	C175.702148,151.072433 174.347641,144.868515 173.145340,138.635223 
	C172.585510,135.732681 172.320923,132.773193 171.978897,129.415695 
	C175.783020,129.039337 178.099625,129.264755 175.946487,134.437271 
	C174.663010,137.520599 175.689575,141.814438 176.418732,145.413986 
	C177.095749,148.756195 178.756546,151.899139 179.998749,155.501663 
z"/>
<path fill="#F2FDF7" opacity="1.000000" stroke="none" 
	d="
M188.838409,109.974365 
	C188.395691,110.864220 187.952988,111.754074 187.263580,112.821793 
	C185.681747,111.672729 183.361908,110.451454 183.205963,108.998001 
	C182.820740,105.408012 184.033630,102.129059 188.667725,101.148300 
	C188.903549,102.341339 188.803833,103.678391 188.970459,105.452011 
	C189.103989,107.250504 188.971191,108.612442 188.838409,109.974365 
z"/>
<path fill="#2B6184" opacity="1.000000" stroke="none" 
	d="
M63.795681,96.800407 
	C66.614388,95.217857 69.272942,92.740288 72.278580,92.202477 
	C88.135078,89.365227 104.053078,86.829018 120.009766,84.622444 
	C124.364853,84.020203 128.927490,84.918892 133.249069,85.469757 
	C131.734177,85.876617 130.365082,85.942474 128.553497,86.006348 
	C125.749916,86.018272 123.388855,86.032188 120.686798,86.031311 
	C119.562202,86.340591 118.778595,86.664658 117.578110,86.990112 
	C112.114357,87.669487 107.067482,88.347481 101.623466,89.013756 
	C99.811836,89.658951 98.397346,90.315857 96.991676,90.984772 
	C97.000504,90.996788 96.977798,90.981087 96.731888,90.980667 
	C96.485985,90.980240 95.994339,90.993271 95.580231,90.993401 
	C93.785881,91.004799 92.405647,91.016068 90.723938,91.033638 
	C89.942680,91.349930 89.462891,91.659927 88.654404,91.974152 
	C87.887497,91.986809 87.449280,91.995232 86.567001,91.995590 
	C84.800766,91.997696 83.408943,91.743576 82.170120,92.070007 
	C79.061714,92.889107 76.022522,93.970871 72.713089,94.950005 
	C72.470604,94.952721 71.986046,94.973267 71.654663,94.974899 
	C70.881393,94.984932 70.439499,94.993340 69.679581,95.152374 
	C67.647987,95.942566 65.934425,96.582123 64.114639,97.116287 
	C64.008423,97.010895 63.795681,96.800407 63.795681,96.800407 
z"/>
<path fill="#2B6184" opacity="1.000000" stroke="none" 
	d="
M65.153694,135.987946 
	C65.153694,135.987946 64.884529,136.045670 64.747002,136.047760 
	C63.105850,127.123360 61.106625,118.239799 60.328106,109.250526 
	C59.988583,105.330139 62.151363,101.193039 63.486710,96.977386 
	C63.795681,96.800407 64.008423,97.010895 64.035065,97.495888 
	C63.432182,102.331078 62.084042,106.721748 62.326267,111.022850 
	C62.796425,119.371147 64.160179,127.669121 65.153694,135.987946 
z"/>
<path fill="#125A8D" opacity="1.000000" stroke="none" 
	d="
M128.996002,86.008339 
	C130.365082,85.942474 131.734177,85.876617 133.623535,85.710510 
	C134.143799,85.610260 134.161240,85.612274 134.179138,85.593407 
	C134.148041,85.808929 134.099045,86.043320 133.639481,86.640244 
	C131.817932,86.671288 130.406967,86.339813 128.996002,86.008339 
z"/>
<path fill="#FFFFFF" opacity="1.000000" stroke="none" 
	d="
M142.827972,84.093597 
	C142.995087,84.006599 142.998581,84.501541 142.997955,84.748970 
	C142.885193,84.724464 142.773026,84.452538 142.827972,84.093597 
z"/>
<path fill="#2B6184" opacity="1.000000" stroke="none" 
	d="
M64.132553,139.268005 
	C64.449799,139.142166 64.674255,139.351028 64.903183,139.851776 
	C64.683228,139.893646 64.393936,139.713318 64.132553,139.268005 
z"/>
<path fill="#34A5D1" opacity="1.000000" stroke="none" 
	d="
M217.184525,177.810547 
	C216.499725,178.062698 216.060226,178.006317 215.070297,177.654633 
	C213.666809,177.224045 212.813766,177.088745 212.020630,176.587372 
	C214.669861,175.151230 217.179138,173.559769 219.869370,173.146683 
	C223.033112,172.660858 226.404480,173.607910 229.597092,173.214218 
	C239.493515,171.993866 249.405136,170.732529 259.192444,168.866211 
	C263.555420,168.034256 267.758942,165.970459 271.801575,163.989624 
	C274.630249,162.603607 277.306183,160.669846 279.611572,158.511978 
	C282.453857,155.851639 285.024902,152.842392 287.358887,149.719193 
	C288.891602,147.668213 289.904907,145.196075 290.947327,142.823151 
	C291.655273,141.211548 291.781921,139.330475 292.564514,137.768265 
	C295.454681,131.999069 295.518372,126.011841 294.469116,119.832878 
	C293.012299,111.253822 291.731415,102.644966 290.288422,94.063461 
	C288.749573,84.911949 290.006653,75.191605 282.286255,67.433563 
	C280.269440,65.406921 278.542816,63.308128 276.191925,63.451492 
	C266.901917,64.018013 257.246857,63.847649 248.504135,66.505875 
	C241.295425,68.697685 233.991196,67.974052 226.684692,70.133987 
	C224.915695,70.839485 223.458328,71.414635 221.613571,71.990028 
	C216.781219,74.345161 212.402542,76.838196 207.870682,79.011909 
	C204.141418,80.800659 201.607727,82.974274 203.598572,87.464661 
	C197.309708,88.732491 197.051331,89.335609 199.603485,97.080971 
	C197.268097,96.710663 195.247223,96.390228 193.101822,96.013611 
	C192.977295,95.957443 192.721344,95.861862 192.721344,95.861862 
	C192.964401,95.040588 193.207458,94.219307 194.044189,93.138100 
	C195.399765,91.200760 196.161667,89.523354 196.923553,87.845947 
	C204.505127,75.801430 215.616501,69.351761 229.485794,67.188240 
	C244.256927,64.884033 259.009796,62.462475 273.782227,60.166904 
	C281.269623,59.003403 288.585419,64.108345 289.868713,71.849220 
	C292.667542,88.731758 295.623047,105.612724 297.575684,122.602242 
	C298.806580,133.312134 295.125488,143.270309 288.941284,152.541412 
	C283.639008,157.316544 278.418365,161.753296 272.971252,166.434464 
	C256.844452,169.936264 240.944153,173.193665 224.660980,176.678894 
	C221.995346,177.105148 219.712585,177.303558 217.184525,177.810547 
z"/>
<path fill="#53A6C5" opacity="1.000000" stroke="none" 
	d="
M188.900177,110.408646 
	C188.971191,108.612442 189.103989,107.250504 189.263657,105.479645 
	C189.942352,103.088249 190.594177,101.105782 191.568756,99.288651 
	C191.596695,101.971291 191.301865,104.488594 191.000183,107.250931 
	C190.993332,107.495964 190.986511,107.986267 190.821838,108.079071 
	C190.596878,108.281326 190.458282,108.445976 190.489822,108.490715 
	C190.626724,108.684937 190.813232,108.844185 190.937897,109.409317 
	C190.637970,112.176941 190.381897,114.551392 190.020905,117.328873 
	C189.817566,117.991508 189.719101,118.251106 189.620621,118.510712 
	C189.401062,115.954781 189.181503,113.398849 188.900177,110.408646 
z"/>
<path fill="#34A5D1" opacity="1.000000" stroke="none" 
	d="
M191.007034,107.005890 
	C191.301865,104.488594 191.596695,101.971291 191.801605,99.016060 
	C191.711685,98.578125 191.715286,98.252518 192.071960,98.120735 
	C192.615662,97.990280 192.802704,97.991608 193.244278,98.218834 
	C192.668228,101.298454 191.837631,104.152168 191.007034,107.005890 
z"/>
<path fill="#53A6C5" opacity="1.000000" stroke="none" 
	d="
M196.642487,88.030258 
	C196.161667,89.523354 195.399765,91.200760 194.278076,92.916061 
	C194.732666,91.374161 195.547043,89.794365 196.642487,88.030258 
z"/>
<path fill="#53A6C5" opacity="1.000000" stroke="none" 
	d="
M192.989731,97.992935 
	C192.802704,97.991608 192.615662,97.990280 192.147339,97.976425 
	C192.008011,97.398399 192.149963,96.832901 192.506622,96.064636 
	C192.721344,95.861862 192.977295,95.957443 193.036011,96.330139 
	C193.059723,97.132874 193.024734,97.562904 192.989731,97.992935 
z"/>
<path fill="#025D58" opacity="1.000000" stroke="none" 
	d="
M256.756317,191.269028 
	C258.728333,190.985504 260.451385,190.992981 262.764679,191.246017 
	C263.897125,191.647690 264.439392,191.803787 264.981628,191.959885 
	C267.344910,192.315704 269.708191,192.671539 272.491943,193.057861 
	C273.038483,194.876968 273.164551,196.665573 273.289093,198.432358 
	C280.229614,198.378815 290.024078,207.394333 291.058075,214.088379 
	C292.691589,224.663193 294.672424,235.183868 296.391846,245.746094 
	C297.316650,251.427094 298.077911,257.138428 298.724792,262.857361 
	C298.834106,263.823547 298.190582,265.054779 297.543396,265.891815 
	C295.833344,268.103607 293.930359,270.166290 292.022705,272.612335 
	C283.390869,273.635040 274.452362,273.029388 266.406281,275.423218 
	C259.292114,277.539856 252.298462,276.729095 245.349167,277.925323 
	C244.390503,278.090393 243.309158,278.090698 242.385605,277.821198 
	C237.119827,276.284729 231.884689,274.643311 226.233856,273.067200 
	C225.657745,273.065857 225.486908,273.034912 225.123123,272.829254 
	C224.584137,270.925751 224.816071,268.235992 223.798416,267.623962 
	C217.124725,263.610199 216.610916,256.234222 213.490021,250.256210 
	C209.123291,241.891830 209.581573,232.704071 208.006424,223.863068 
	C207.660065,221.919006 207.335037,219.960663 207.181793,217.994736 
	C206.777100,212.803314 206.376389,207.606720 206.233765,202.405075 
	C206.213120,201.652374 207.508774,200.373718 208.387497,200.170822 
	C212.242111,199.280792 216.277405,197.760086 220.043442,198.202454 
	C227.242218,199.048050 233.399399,195.937119 240.009903,194.546722 
	C245.476624,193.396942 251.005859,192.544312 256.756317,191.269028 
z"/>
<path fill="#206188" opacity="1.000000" stroke="none" 
	d="
M79.289703,179.317322 
	C79.635086,178.986923 80.050011,178.977814 81.157867,178.977280 
	C83.109306,178.745316 84.401741,178.214371 85.615540,178.356232 
	C86.583328,178.469360 87.868279,179.191132 88.289925,180.013275 
	C89.420898,182.218475 90.164139,184.622528 91.061363,186.947617 
	C90.769432,187.019287 90.520798,187.164886 90.210381,187.575409 
	C86.523277,185.057175 82.941254,182.347885 79.289703,179.317322 
z"/>
<path fill="#FFFFFF" opacity="1.000000" stroke="none" 
	d="
M74.795349,175.104126 
	C75.448586,174.979065 75.716476,175.136978 75.969681,175.663589 
	C75.891533,177.090866 75.747177,178.286667 75.602821,179.482468 
	C75.069359,179.461624 74.535896,179.440781 74.002426,179.419952 
	C74.165245,178.029938 74.328064,176.639908 74.795349,175.104126 
z"/>
<path fill="#FFFFFF" opacity="1.000000" stroke="none" 
	d="
M70.825935,167.994232 
	C71.450775,168.392441 71.725433,168.849136 72.021774,169.600403 
	C71.308701,170.313171 70.573967,170.731354 69.839233,171.149536 
	C70.051407,170.117264 70.263580,169.085007 70.825935,167.994232 
z"/>
<path fill="#015C95" opacity="1.000000" stroke="none" 
	d="
M91.385223,186.960876 
	C90.164139,184.622528 89.420898,182.218475 88.289925,180.013275 
	C87.868279,179.191132 86.583328,178.469360 85.615540,178.356232 
	C84.401741,178.214371 83.109306,178.745316 81.468987,178.966492 
	C80.032120,173.919144 76.571976,170.338501 73.758804,166.302063 
	C69.680824,160.450790 69.452507,153.505981 68.866699,146.624344 
	C68.569382,143.131653 66.853867,139.759705 65.466599,136.160553 
	C64.160179,127.669121 62.796425,119.371147 62.326267,111.022850 
	C62.084042,106.721748 63.432182,102.331078 64.141281,97.601280 
	C65.934425,96.582123 67.647987,95.942566 69.826248,95.378334 
	C70.855980,95.293526 71.421013,95.133400 71.986046,94.973267 
	C71.986046,94.973267 72.470604,94.952721 73.070374,94.965508 
	C75.072960,95.081108 76.581535,95.565117 77.857643,95.211136 
	C80.966179,94.348877 83.966919,93.098015 87.011070,92.003647 
	C87.449280,91.995232 87.887497,91.986809 88.823517,92.207985 
	C89.889351,91.967506 90.457382,91.497421 91.025406,91.027344 
	C92.405647,91.016068 93.785881,91.004799 95.668655,91.162674 
	C96.440056,91.214905 96.708931,91.097992 96.977798,90.981087 
	C96.977798,90.981087 97.000504,90.996788 97.388519,90.995117 
	C99.191223,90.337456 100.605911,89.681465 102.020599,89.025467 
	C107.067482,88.347481 112.114357,87.669487 117.774727,87.247078 
	C119.268074,87.017143 120.147934,86.531624 121.027794,86.046104 
	C123.388855,86.032188 125.749916,86.018272 128.553497,86.006348 
	C130.406967,86.339813 131.817932,86.671288 133.616821,86.998711 
	C135.209518,87.761452 136.317719,88.841446 137.633789,89.247337 
	C153.401917,94.110313 163.123657,104.961884 166.922241,120.585815 
	C169.750458,132.218491 170.944397,144.242798 173.104065,156.049179 
	C173.480698,158.108170 175.037918,159.951187 176.393097,161.954285 
	C176.808990,162.465820 176.881653,162.917038 176.903336,163.708572 
	C176.953568,168.071320 176.600433,172.171860 177.275162,176.095657 
	C178.055634,180.634430 177.534851,181.371048 172.983124,182.096024 
	C163.379807,183.625595 153.855240,185.644684 144.283813,187.382919 
	C142.183548,187.764343 140.022629,187.811874 137.059814,188.006348 
	C134.817139,188.328766 133.404312,188.657990 131.991501,188.987213 
	C130.608200,188.995392 129.224884,189.003571 127.179092,188.731689 
	C123.009613,188.741364 118.808350,187.162384 116.987930,191.991760 
	C110.265213,192.172623 103.866943,190.791046 97.371262,187.633240 
	C95.911644,183.643784 94.490059,184.888168 93.007187,186.979630 
	C92.574486,186.977798 92.141785,186.975967 91.385223,186.960876 
z"/>
<path fill="#0F588A" opacity="1.000000" stroke="none" 
	d="
M117.385399,191.997101 
	C118.808350,187.162384 123.009613,188.741364 126.764099,188.733429 
	C123.935349,190.010941 120.859108,191.006683 117.385399,191.997101 
z"/>
<path fill="#206188" opacity="1.000000" stroke="none" 
	d="
M93.354691,186.992325 
	C94.490059,184.888168 95.911644,183.643784 96.980827,187.620148 
	C95.887802,187.650452 94.794998,187.327728 93.354691,186.992325 
z"/>
<path fill="#0F588A" opacity="1.000000" stroke="none" 
	d="
M132.379639,188.995911 
	C133.404312,188.657990 134.817139,188.328766 136.617844,188.006134 
	C135.593063,188.343338 134.180420,188.673965 132.379639,188.995911 
z"/>
<path fill="#FFFFFF" opacity="1.000000" stroke="none" 
	d="
M278.213684,166.892242 
	C278.084656,166.670975 278.271423,166.402130 278.772858,166.083862 
	C278.902069,166.304367 278.716064,166.574448 278.213684,166.892242 
z"/>
<path fill="#FCFAF1" opacity="1.000000" stroke="none" 
	d="
M217.329956,184.507690 
	C212.208435,185.531326 207.045029,186.304932 201.854233,186.778656 
	C200.675980,186.886200 199.402832,185.953674 198.173355,185.499863 
	C199.040558,184.673676 199.839432,183.229202 200.786377,183.124557 
	C205.844650,182.565536 210.939911,182.341248 216.483032,182.001282 
	C217.055176,182.717255 217.166672,183.433136 217.329956,184.507690 
z"/>
<path fill="#205D5A" opacity="1.000000" stroke="none" 
	d="
M264.819031,191.722412 
	C264.439392,191.803787 263.897125,191.647690 263.195526,191.250885 
	C263.576263,191.168442 264.116333,191.326691 264.819031,191.722412 
z"/>
<path fill="#53A5C6" opacity="1.000000" stroke="none" 
	d="
M195.306839,161.808228 
	C195.029800,160.864410 195.039719,160.236053 195.399902,159.487183 
	C196.831131,162.582687 197.912094,165.798706 198.999725,169.338928 
	C199.022324,170.095154 199.038239,170.527161 199.036591,171.370590 
	C198.000778,175.605667 200.424866,177.727661 202.976044,179.786850 
	C199.741272,181.149551 198.305435,180.187668 197.935074,176.574829 
	C197.438278,171.728683 196.399734,166.938095 195.306839,161.808228 
z"/>
<path fill="#34A5D1" opacity="1.000000" stroke="none" 
	d="
M203.329910,179.810867 
	C200.424866,177.727661 198.000778,175.605667 199.399582,171.457947 
	C200.964539,176.136917 203.644089,178.404465 208.872360,176.185699 
	C209.097595,176.090134 209.619843,176.694504 209.787537,177.240448 
	C208.048553,178.125687 206.525772,178.743286 205.002991,179.360886 
	C204.563248,179.518890 204.123520,179.676880 203.329910,179.810867 
z"/>
<path fill="#FBF8EC" opacity="1.000000" stroke="none" 
	d="
M184.357697,183.968872 
	C181.528976,181.967224 181.414703,179.748886 182.797363,177.349335 
	C183.428406,177.302872 184.059433,177.256409 184.690475,177.209946 
	C184.690475,179.486801 184.690475,181.763641 184.357697,183.968872 
z"/>
<path fill="#53A5C6" opacity="1.000000" stroke="none" 
	d="
M205.373810,179.456177 
	C206.525772,178.743286 208.048553,178.125687 210.113983,177.242737 
	C211.091324,176.969421 211.526016,176.961426 211.960724,176.953430 
	C212.813766,177.088745 213.666809,177.224045 214.743011,177.594055 
	C211.892303,178.403000 208.818466,178.977249 205.373810,179.456177 
z"/>
<path fill="#34A5D1" opacity="1.000000" stroke="none" 
	d="
M198.993073,169.014725 
	C197.912094,165.798706 196.831131,162.582687 195.444611,159.173859 
	C195.102905,158.236267 195.066757,157.491516 195.313293,156.376175 
	C195.776688,155.999573 195.957413,155.993530 196.435974,156.033356 
	C197.407257,156.426224 198.080658,156.773209 198.339798,156.906754 
	C199.250748,154.814453 200.107056,152.847626 200.963364,150.880814 
	C201.554184,151.092865 202.145004,151.304932 202.735840,151.516983 
	C202.112213,154.866364 205.667053,159.017014 199.914246,161.480331 
	C199.271301,161.755615 199.305771,163.788513 199.168839,165.022156 
	C199.022217,166.343246 199.044510,167.683075 198.993073,169.014725 
z"/>
<path fill="#53A5C6" opacity="1.000000" stroke="none" 
	d="
M196.138123,155.987488 
	C195.957413,155.993530 195.776688,155.999573 195.325272,156.003387 
	C194.719498,155.526321 194.384415,155.051468 194.014511,154.271332 
	C194.015015,153.801208 194.050354,153.636398 194.387466,153.352234 
	C195.140305,153.487656 195.591354,153.742462 196.041840,154.329742 
	C196.073578,155.103958 196.105850,155.545731 196.138123,155.987488 
z"/>
<path fill="#34A5D1" opacity="1.000000" stroke="none" 
	d="
M196.042389,153.997269 
	C195.591354,153.742462 195.140305,153.487656 194.459656,153.109924 
	C193.777786,148.998260 193.325500,145.009537 192.932358,140.190155 
	C193.030060,138.549042 193.068634,137.738571 193.461761,136.998566 
	C194.853989,138.249390 196.751541,139.412415 196.775726,140.613174 
	C196.865433,145.067810 196.338013,149.534866 196.042389,153.997269 
z"/>
<path fill="#53A6C5" opacity="1.000000" stroke="none" 
	d="
M193.107208,136.928085 
	C193.068634,137.738571 193.030060,138.549042 192.947784,139.764908 
	C191.880234,134.064056 190.856384,127.957825 190.145569,121.620621 
	C191.278900,122.614388 192.099228,123.839134 192.929489,125.385674 
	C192.931198,126.137222 192.922974,126.566986 192.677948,127.190643 
	C192.630753,128.258682 192.820374,129.132812 193.010315,130.441437 
	C193.042831,132.893311 193.075027,134.910690 193.107208,136.928085 
z"/>
<path fill="#34A5D1" opacity="1.000000" stroke="none" 
	d="
M192.919556,125.063881 
	C192.099228,123.839134 191.278900,122.614388 190.173203,121.183922 
	C189.793243,120.359917 189.698654,119.741638 189.612335,118.817032 
	C189.719101,118.251106 189.817566,117.991508 190.367722,117.429970 
	C191.519470,119.773315 192.219513,122.418594 192.919556,125.063881 
z"/>
<path fill="#0F588A" opacity="1.000000" stroke="none" 
	d="
M86.567001,91.995590 
	C83.966919,93.098015 80.966179,94.348877 77.857643,95.211136 
	C76.581535,95.565117 75.072960,95.081108 73.312851,94.962791 
	C76.022522,93.970871 79.061714,92.889107 82.170120,92.070007 
	C83.408943,91.743576 84.800766,91.997696 86.567001,91.995590 
z"/>
<path fill="#0F588A" opacity="1.000000" stroke="none" 
	d="
M101.623466,89.013763 
	C100.605911,89.681465 99.191223,90.337456 97.379692,90.983109 
	C98.397346,90.315857 99.811836,89.658951 101.623466,89.013763 
z"/>
<path fill="#125A8D" opacity="1.000000" stroke="none" 
	d="
M120.686798,86.031311 
	C120.147934,86.531624 119.268074,87.017143 118.191605,87.245697 
	C118.778595,86.664658 119.562202,86.340591 120.686798,86.031311 
z"/>
<path fill="#0F588A" opacity="1.000000" stroke="none" 
	d="
M90.723938,91.033638 
	C90.457382,91.497421 89.889351,91.967506 89.152206,92.203751 
	C89.462891,91.659927 89.942680,91.349930 90.723938,91.033638 
z"/>
<path fill="#0F588A" opacity="1.000000" stroke="none" 
	d="
M71.654663,94.974899 
	C71.421013,95.133400 70.855980,95.293526 70.144272,95.227707 
	C70.439499,94.993340 70.881393,94.984932 71.654663,94.974899 
z"/>
<path fill="#0F588A" opacity="1.000000" stroke="none" 
	d="
M96.731888,90.980667 
	C96.708931,91.097992 96.440056,91.214905 96.082764,91.162544 
	C95.994339,90.993271 96.485985,90.980240 96.731888,90.980667 
z"/>
<path fill="#1CA8E3" opacity="1.000000" stroke="none" 
	d="
M192.929489,125.385674 
	C192.219513,122.418594 191.519470,119.773315 190.472626,117.026932 
	C190.381897,114.551392 190.637970,112.176941 190.947601,109.151810 
	C190.996262,108.329521 190.991379,108.157898 190.986511,107.986267 
	C190.986511,107.986267 190.993332,107.495964 191.000183,107.250931 
	C191.837631,104.152168 192.668228,101.298454 193.244278,98.218834 
	C193.024734,97.562904 193.059723,97.132874 193.160522,96.386314 
	C195.247223,96.390228 197.268097,96.710663 199.603485,97.080971 
	C197.051331,89.335609 197.309708,88.732491 203.598572,87.464661 
	C201.607727,82.974274 204.141418,80.800659 207.870682,79.011909 
	C212.402542,76.838196 216.781219,74.345161 221.606476,72.383240 
	C221.727753,74.311737 221.468704,75.847275 221.306000,76.811707 
	C227.899261,75.908607 234.211731,75.043961 240.524200,74.179314 
	C240.565735,73.667763 240.607269,73.156212 240.648804,72.644661 
	C237.691696,72.397514 234.706985,72.318069 231.788193,71.838005 
	C230.135056,71.566109 228.590042,70.636841 226.996323,70.003647 
	C233.991196,67.974052 241.295425,68.697685 248.504135,66.505875 
	C257.246857,63.847649 266.901917,64.018013 276.191925,63.451492 
	C278.542816,63.308128 280.269440,65.406921 282.286255,67.433563 
	C290.006653,75.191605 288.749573,84.911949 290.288422,94.063461 
	C291.731415,102.644966 293.012299,111.253822 294.469116,119.832878 
	C295.518372,126.011841 295.454681,131.999069 292.564514,137.768265 
	C291.781921,139.330475 291.655273,141.211548 290.947327,142.823151 
	C289.904907,145.196075 288.891602,147.668213 287.358887,149.719193 
	C285.024902,152.842392 282.453857,155.851639 279.611572,158.511978 
	C277.306183,160.669846 274.630249,162.603607 271.801575,163.989624 
	C267.758942,165.970459 263.555420,168.034256 259.192444,168.866211 
	C249.405136,170.732529 239.493515,171.993866 229.597092,173.214218 
	C226.404480,173.607910 223.033112,172.660858 219.869370,173.146683 
	C217.179138,173.559769 214.669861,175.151230 212.020630,176.587372 
	C211.526016,176.961426 211.091324,176.969421 210.330170,176.975098 
	C209.619843,176.694504 209.097595,176.090134 208.872360,176.185699 
	C203.644089,178.404465 200.964539,176.136917 199.417145,171.046524 
	C199.038239,170.527161 199.022324,170.095154 198.999741,169.338928 
	C199.044510,167.683075 199.022217,166.343246 199.168839,165.022156 
	C199.305771,163.788513 199.271301,161.755615 199.914246,161.480331 
	C205.667053,159.017014 202.112213,154.866364 202.735840,151.516983 
	C202.145004,151.304932 201.554184,151.092865 200.963364,150.880814 
	C200.107056,152.847626 199.250748,154.814453 198.339798,156.906754 
	C198.080658,156.773209 197.407257,156.426224 196.435974,156.033356 
	C196.105850,155.545731 196.073578,155.103958 196.041840,154.329742 
	C196.338013,149.534866 196.865433,145.067810 196.775726,140.613174 
	C196.751541,139.412415 194.853989,138.249390 193.461777,136.998566 
	C193.075027,134.910690 193.042831,132.893311 193.259277,130.252350 
	C193.310211,128.751434 193.112473,127.874092 192.914749,126.996742 
	C192.922974,126.566986 192.931198,126.137222 192.929489,125.385674 
M230.414017,168.993256 
	C233.191132,169.184082 235.968231,169.374908 238.745346,169.565750 
	C238.773468,169.027191 238.801605,168.488647 238.829742,167.950089 
	C235.119339,167.950089 231.408951,167.950089 227.698547,167.950089 
	C227.647476,168.096939 227.596390,168.243774 227.545303,168.390625 
	C228.243622,168.587479 228.941925,168.784348 230.414017,168.993256 
z"/>
<path fill="#1EA9D9" opacity="1.000000" stroke="none" 
	d="
M226.684692,70.133987 
	C228.590042,70.636841 230.135056,71.566109 231.788193,71.838005 
	C234.706985,72.318069 237.691696,72.397514 240.648804,72.644661 
	C240.607269,73.156212 240.565735,73.667763 240.524200,74.179314 
	C234.211731,75.043961 227.899261,75.908607 221.306000,76.811707 
	C221.468704,75.847275 221.727753,74.311737 221.993866,72.382996 
	C223.458328,71.414635 224.915695,70.839485 226.684692,70.133987 
z"/>
<path fill="#34A5D1" opacity="1.000000" stroke="none" 
	d="
M190.821838,108.079071 
	C190.991379,108.157898 190.996262,108.329521 190.991425,108.758644 
	C190.813232,108.844185 190.626724,108.684937 190.489822,108.490715 
	C190.458282,108.445976 190.596878,108.281326 190.821838,108.079071 
z"/>
<path fill="#34A5D1" opacity="1.000000" stroke="none" 
	d="
M192.677948,127.190643 
	C193.112473,127.874092 193.310211,128.751434 193.258972,129.817871 
	C192.820374,129.132812 192.630753,128.258682 192.677948,127.190643 
z"/>
<path fill="#34A5D1" opacity="1.000000" stroke="none" 
	d="
M230.027130,168.987244 
	C228.941925,168.784348 228.243622,168.587479 227.545303,168.390625 
	C227.596390,168.243774 227.647476,168.096939 227.698547,167.950089 
	C231.408951,167.950089 235.119339,167.950089 238.829742,167.950089 
	C238.801605,168.488647 238.773468,169.027191 238.745346,169.565750 
	C235.968231,169.374908 233.191132,169.184082 230.027130,168.987244 
z"/>
</svg>